{"title":"Star Wars The Force Awakens 2015 HDCAM x264 Ac3-GN2","uid":13199250,"size":3142911405,"categoryP":"video","categoryS":"movies","magnet":"?xt=urn:btih:2adc764f3c645b3386cdb70e555a6cf432e9d16a&amp;dn=Star+Wars+The+Force+Awakens+2015+HDCAM+x264+Ac3-GN2&amp;tr=udp%3A%2F%2Ftracker.leechers-paradise.org%3A6969&amp;tr=udp%3A%2F%2Fzer0day.ch%3A1337&amp;tr=udp%3A%2F%2Fopen.demonii.com%3A1337&amp;tr=udp%3A%2F%2Ftracker.coppersurfer.tk%3A6969&amp;tr=udp%3A%2F%2Fexodus.desync.com%3A6969","seeders":4,"leechers":2,"uploader":"makintos13","files":1,"time":1452527127,"description":"screens:\r\n \nhttp://imgmak.com/image/KG7\r\n \nhttp://imgmak.com/image/KGk\r\n \nhttp://imgmak.com/image/KGm\r\n\r\n\r\nGeneral\r\nComplete name : Star Wars The Force Awakens 2015 HDCAM x264 Ac3-GN2.mkv\r\nFormat : Matroska\r\nFormat version : Version 2\r\nFile size : 2.93 GiB\r\nDuration : 2h 7mn\r\nOverall bit rate : 3 297 Kbps\r\nWriting application : HandBrake rev3736\r\nWriting library : libmkv 0.6.4.1\r\n\r\nVideo\r\nID : 1\r\nFormat : AVC\r\nFormat/Info : Advanced Video Codec\r\nFormat profile :   \r\nFormat settings, CABAC : Yes\r\nFormat settings, ReFrames : 4 frames\r\nCodec ID : V_MPEG4/ISO/AVC\r\nDuration : 2h 7mn\r\nBit rate : 2 656 Kbps\r\nWidth : 720 pixels\r\nHeight : 288 pixels\r\nDisplay aspect ratio : 2.500\r\nFrame rate mode : Constant\r\nFrame rate : 23.976 fps\r\nColor space : YUV\r\nChroma subsampling : 4:2:0\r\nBit depth : 8 bits\r\nScan type : Progressive\r\nBits/(Pixel*Frame) : 0.534\r\nStream size : 2.30 GiB (79%)\r\nWriting library : x264 core 112\r\n\r\nLanguage : English\r\nDefault : Yes\r\nForced : No\r\nColor primaries : BT.601 NTSC\r\nTransfer characteristics : BT.709\r\nMatrix coefficients : BT.601\r\n\r\nAudio\r\nID : 2\r\nFormat : AC-3\r\nFormat/Info : Audio Coding 3\r\nMode extension : CM (complete main)\r\nFormat settings, Endianness : Big\r\nCodec ID : A_AC3\r\nDuration : 2h 7mn\r\nBit rate mode : Constant\r\nBit rate : 640 Kbps\r\nChannel(s) : 2 channels\r\nChannel positions : Front: L R\r\nSampling rate : 44.1 KHz\r\nBit depth : 16 bits\r\nCompression mode : Lossy\r\nStream size : 582 MiB (19%)\r\nLanguage : English\r\nDefault : Yes\r\nForced : No\r\nImDb :http://www.imdb.com/title/tt2488496/","torrent":{"xt":"urn:btih:2adc764f3c645b3386cdb70e555a6cf432e9d16a","amp;dn":"Star+Wars+The+Force+Awakens+2015+HDCAM+x264+Ac3-GN2","amp;tr":["udp%3A%2F%2Ftracker.leechers-paradise.org%3A6969","udp%3A%2F%2Fzer0day.ch%3A1337","udp%3A%2F%2Fopen.demonii.com%3A1337","udp%3A%2F%2Ftracker.coppersurfer.tk%3A6969","udp%3A%2F%2Fexodus.desync.com%3A6969"],"infoHash":"2adc764f3c645b3386cdb70e555a6cf432e9d16a","infoHashBuffer":{"type":"Buffer","data":[42,220,118,79,60,100,91,51,134,205,183,14,85,90,108,244,50,233,209,106]},"announce":[],"urlList":[]}}